<svg xmlns="http://www.w3.org/2000/svg" viewBox="0 0 256 96">
  <defs>
    <linearGradient id="edge" x1="0" y1="0" x2="0" y2="1">
      <stop offset="0" stop-color="#FFE6B3"/>
      <stop offset="0.42" stop-color="#FFC36A"/>
      <stop offset="1" stop-color="#FF9A1F"/>
    </linearGradient>
    <filter id="glow" x="-60%" y="-80%" width="220%" height="260%">
      <feGaussianBlur stdDeviation="10.5" result="b"/>
      <feColorMatrix in="b" type="matrix" values="1 0 0 0 0  0 1 0 0 0  0 0 1 0 0  0 0 0 0.76 0" result="g"/>
      <feMerge>
        <feMergeNode in="g"/>
        <feMergeNode in="SourceGraphic"/>
      </feMerge>
    </filter>
    <linearGradient id="fill" x1="0" y1="0" x2="0" y2="1">
      <stop offset="0" stop-color="#0B0B0F"/>
      <stop offset="1" stop-color="#000000"/>
    </linearGradient>
  </defs>

  <g filter="url(#glow)">
    <rect x="18" y="18" width="220" height="60" rx="12" fill="none" stroke="#FFC36A" stroke-width="14" opacity="0.34"/>
    <rect x="26" y="26" width="204" height="44" rx="11" fill="none" stroke="url(#edge)" stroke-width="6.5"/>
    <rect x="30" y="30" width="196" height="36" rx="10" fill="none" stroke="#FFE6B3" opacity="0.18" stroke-width="2"/>
  </g>

  <rect x="32" y="32" width="192" height="32" rx="10" fill="url(#fill)" stroke="#4A2400" stroke-width="2"/>
  <rect x="36" y="36" width="184" height="14" rx="7" fill="#FFFFFF" opacity="0.10"/>

  <g opacity="0.82">
    <circle cx="22" cy="22" r="1.4" fill="#FFC36A"/>
    <circle cx="244" cy="74" r="1.9" fill="#FFC36A"/>
    <circle cx="10" cy="70" r="1.2" fill="#FFE6B3"/>
    <circle cx="248" cy="26" r="1.3" fill="#FFE6B3"/>
    <circle cx="44" cy="10" r="1.1" fill="#FFC36A"/>
    <circle cx="212" cy="10" r="1.1" fill="#FFC36A"/>
    <circle cx="120" cy="14" r="1.0" fill="#FFE6B3"/>
    <circle cx="136" cy="82" r="1.0" fill="#FFE6B3"/>
  </g>
</svg>
